<svg className='test' width="500" height="100" xmlns="http://www.w3.org/2000/svg" 
viewBox="10 -30 750 150"
><g id="react" fill="#6c3eb8">
      <path d="M30.523 26.875a4.665 4.665 0 0 1-4.672 4.672 4.68 4.68 0 0 1-4.676-4.676c0-.945.282-1.82.762-2.555a4.678 4.678 0 0 1 8.54 1.86c.027.23.046.46.046.699zm32.868 54.93a4.675 4.675 0 0 1-4.676 4.672c-.078 0-.156 0-.23-.004a4.643 4.643 0 0 1-2.887-1.188 4.645 4.645 0 0 1-1.555-3.48 4.673 4.673 0 0 1 4.676-4.676c.875 0 1.688.238 2.387.656a4.667 4.667 0 0 1 2.285 4.02zm24.3-42.196a4.673 4.673 0 0 1-8.692 2.387 4.672 4.672 0 0 1 5.758-6.727 4.674 4.674 0 0 1 2.934 4.34z"/><path d="M63.809 45.945c-.031-1.29-.078-2.57-.145-3.832-.18-3.555-.48-6.996-.89-10.266a122.99 122.99 0 0 0-.45-3.195c-.562-3.625-1.273-7-2.12-10.016C57.634 9.51 54.106 4.686 50 4.686c-4.11 0-7.637 4.825-10.203 13.954-.848 3.015-1.56 6.386-2.122 10.016-.164 1.047-.312 2.11-.449 3.195-.414 3.266-.715 6.71-.89 10.266-.063 1.266-.114 2.54-.145 3.828-.035 1.344-.055 2.695-.055 4.055s.016 2.715.055 4.054c.031 1.29.078 2.57.145 3.832.18 3.555.48 6.997.89 10.266.137 1.086.29 2.153.45 3.196.562 3.625 1.273 7 2.12 10.016 2.57 9.12 6.094 13.949 10.204 13.949 2.648 0 5.054-2.004 7.117-5.875a7.753 7.753 0 0 1-2.875-1.25c-1.563 2.855-3.086 4-4.242 4-1.891 0-4.774-3.067-7.196-11.672-.87-3.102-1.594-6.594-2.152-10.371-.156-1.055-.3-2.13-.43-3.227a134.89 134.89 0 0 1-.64-6.988 131.38 131.38 0 0 1-.2-3.8c-.078-2.013-.12-4.06-.12-6.13a150.961 150.961 0 0 1 .32-9.93 124.374 124.374 0 0 1 1.07-10.215c.559-3.777 1.281-7.269 2.152-10.37C45.226 10.879 48.109 7.813 50 7.813s4.773 3.066 7.195 11.672c.87 3.101 1.594 6.593 2.152 10.37.16 1.055.3 2.13.43 3.227.265 2.254.484 4.59.64 6.988.086 1.25.149 2.516.2 3.801.078 2.012.12 4.059.12 6.13a150.591 150.591 0 0 1-.32 9.929 124.374 124.374 0 0 1-1.07 10.215 93.578 93.578 0 0 1-.648 3.863h.015c1.078 0 2.11.219 3.047.617a106.775 106.775 0 0 0 1.012-6.473c.414-3.265.715-6.71.89-10.265.063-1.266.114-2.543.145-3.832.035-1.34.055-2.696.055-4.055s-.02-2.715-.055-4.055z"/><path d="M89.242 27.344c-1.242-2.152-3.883-3.242-7.844-3.242-4.875 0-11.555 1.633-19.074 4.555-.976.378-1.969.78-2.976 1.203a139.364 139.364 0 0 0-9.344 4.363 159.41 159.41 0 0 0-13.664 7.895 133.906 133.906 0 0 0-8.453 5.91c-.867.656-1.711 1.316-2.531 1.976-2.86 2.301-5.422 4.602-7.61 6.844-6.629 6.785-9.043 12.254-6.988 15.81 1.242 2.147 3.883 3.241 7.844 3.241 4.875 0 11.555-1.633 19.074-4.554.976-.38 1.968-.782 2.976-1.203a139.364 139.364 0 0 0 9.344-4.364 159.41 159.41 0 0 0 13.664-7.894 133.906 133.906 0 0 0 8.453-5.91c.867-.657 1.711-1.317 2.531-1.977a98.958 98.958 0 0 0 4.352-3.711 7.83 7.83 0 0 1-2.305-2.125 95.55 95.55 0 0 1-4.574 3.86c-.828.66-1.688 1.32-2.566 1.976a131.66 131.66 0 0 1-5.743 4.055 156.82 156.82 0 0 1-8.441 5.246 153.025 153.025 0 0 1-8.766 4.68 137.017 137.017 0 0 1-6.375 2.937c-1.007.43-2.007.844-2.992 1.234-7.426 2.942-14.023 4.625-18.625 4.625-2.687 0-4.515-.597-5.14-1.68-.946-1.636.27-5.664 6.515-12.065 2.25-2.305 4.914-4.68 7.906-7.051.829-.66 1.688-1.32 2.567-1.977a128.392 128.392 0 0 1 5.742-4.055 154.226 154.226 0 0 1 8.441-5.242 153.025 153.025 0 0 1 8.766-4.68 137.017 137.017 0 0 1 6.375-2.937 132.74 132.74 0 0 1 2.992-1.234c7.426-2.938 14.023-4.625 18.625-4.625 2.688 0 4.516.593 5.14 1.68.423.726.415 1.93-.273 3.609a7.793 7.793 0 0 1 2.57 1.902c1.333-2.824 1.481-5.215.407-7.074z"/><path d="M82.258 56.844c-2.188-2.242-4.75-4.547-7.61-6.844-.82-.66-1.663-1.32-2.53-1.976a135.54 135.54 0 0 0-8.454-5.91 144.408 144.408 0 0 0-3.25-2.044c-1.14-.703-2.304-1.39-3.484-2.074-1.18-.68-2.36-1.34-3.531-1.98A180.67 180.67 0 0 0 50 34.219a137.432 137.432 0 0 0-9.343-4.363c-1.008-.422-2-.825-2.977-1.204a95.705 95.705 0 0 0-4.04-1.468 7.775 7.775 0 0 1-.757 3.054c1.41.485 2.86 1.02 4.344 1.61a128.493 128.493 0 0 1 9.367 4.172 157.81 157.81 0 0 1 3.398 1.726 157.28 157.28 0 0 1 5.368 2.953 154.274 154.274 0 0 1 8.441 5.246c2 1.336 3.922 2.696 5.742 4.055.88.656 1.738 1.317 2.567 1.977 2.992 2.37 5.656 4.746 7.906 7.05 6.242 6.403 7.46 10.43 6.515 12.067-.625 1.082-2.449 1.68-5.14 1.68-4.602 0-11.2-1.684-18.625-4.626-.985-.387-1.985-.8-2.992-1.234a129.635 129.635 0 0 1-6.375-2.938A154.572 154.572 0 0 1 50 62.25a155.957 155.957 0 0 1-5.367-2.953 154.274 154.274 0 0 1-8.441-5.246 135 135 0 0 1-5.743-4.055 110.154 110.154 0 0 1-2.566-1.977c-2.992-2.375-5.656-4.746-7.906-7.05-6.242-6.399-7.457-10.427-6.512-12.063.582-1.007 2.203-1.593 4.59-1.671-.008-.118-.008-.243-.008-.36 0-.976.18-1.91.508-2.773-3.938.008-6.563 1.101-7.797 3.242-2.055 3.555.36 9.023 6.984 15.812 2.188 2.242 4.75 4.547 7.61 6.844.82.66 1.664 1.32 2.531 1.976a135.54 135.54 0 0 0 8.453 5.91c1.063.688 2.148 1.372 3.25 2.044 1.14.703 2.305 1.39 3.484 2.074 1.18.68 2.36 1.34 3.532 1.98A180.67 180.67 0 0 0 50 65.781a137.432 137.432 0 0 0 9.344 4.363c1.008.422 2 .825 2.976 1.204 7.516 2.918 14.2 4.554 19.074 4.554 3.961 0 6.602-1.094 7.844-3.242 2.059-3.559-.355-9.027-6.98-15.816z"/><path d="M55.359 50c0 7.144-10.719 7.144-10.719 0s10.719-7.144 10.719 0"/>
  </g>

  <g  id="sneakers" fill="#fff" transform="translate(120, 80)"> 
       <path d="M-.11-39.75c0 1.54.08 3.47.25 5.77.17 2.31.45 4.79.85 7.44.39 2.64.9 5.33 1.52 8.07.61 2.74 1.37 5.33 2.28 7.77.9 2.44 1.96 4.61 3.18 6.51C9.19-2.3 10.57-.9 12.1 0c.42-.11.72-.32.91-.62.18-.3.3-.64.33-1.01.04-.38.06-.74.06-1.1v-.93c0-1.2-.09-2.32-.25-3.35-.17-1.03-.42-2.05-.74-3.07-.32-1.01-.71-2.06-1.18-3.15-.47-1.09-1-2.33-1.6-3.72h1.8c2.25 0 4.42.45 6.5 1.36 2.08.9 4.14 1.89 6.17 2.98 2.02 1.09 4.04 2.07 6.05 2.95 2.01.89 4.02 1.33 6.05 1.33h.68c.26 0 .52-.05.78-.14.27-.1.49-.23.68-.4.19-.17.28-.42.28-.76 0-.15-.06-.33-.17-.56-.11-.23-.22-.48-.34-.76-.11-.28-.23-.53-.36-.73-.13-.21-.25-.35-.37-.42a186.1 186.1 0 0 0-12.36-6.08c-4.18-1.88-8.49-3.48-12.92-4.79 0-.04-.02-.12-.08-.25a.778.778 0 0 1-.08-.31c0-1.02.33-1.95 1.01-2.82.67-.86 1.51-1.71 2.5-2.53 1-.83 2.09-1.67 3.27-2.53 1.18-.87 2.27-1.8 3.26-2.79 1-1 1.83-2.07 2.51-3.21.68-1.15 1.01-2.43 1.01-3.86 0-1.2-.25-2.24-.76-3.12-.5-.88-1.18-1.63-2.02-2.25-.85-.62-1.81-1.13-2.9-1.52-1.09-.4-2.19-.7-3.3-.9-1.1-.21-2.21-.35-3.32-.43-1.11-.07-2.07-.11-2.9-.11-.64 0-1.45-.02-2.45-.06-.99-.03-2 .01-3.04.15-1.03.13-1.99.37-2.87.73-.88.35-1.53.93-1.94 1.71 0 .27-.01.75-.03 1.44-.02.69-.03 1.43-.03 2.2 0 .76-.01 1.5-.02 2.19-.02.7-.03 1.19-.03 1.49Zm4.84 3.55c0-.26.01-.68.03-1.24.02-.56.03-1.17.03-1.83v-3.01c.26-.68.73-1.18 1.4-1.52.68-.34 1.44-.57 2.28-.7.85-.14 1.7-.19 2.56-.17.87.02 1.62.02 2.26.02.52 0 1.21.08 2.05.23.85.15 1.66.39 2.45.73.79.34 1.46.78 2.03 1.33.56.54.84 1.19.84 1.94 0 .79-.25 1.66-.76 2.62-.51.95-1.17 1.9-2 2.84-.82.94-1.75 1.85-2.78 2.73-1.04.88-2.08 1.66-3.13 2.34-1.05.67-2.05 1.22-3.01 1.63-.96.41-1.77.62-2.45.62-.15 0-.24-.02-.28-.06-.08 0-.15-.02-.23-.06-.48-.52-.83-1.15-1.04-1.88-.2-.73-.33-1.5-.36-2.31-.04-.81-.03-1.59.02-2.36.06-.77.09-1.4.09-1.89Zm36.14 20.55c0 2.36.35 4.51 1.04 6.45.7 1.93 1.7 3.58 3.02 4.95 1.31 1.37 2.92 2.44 4.84 3.21 1.91.77 4.07 1.15 6.47 1.15.38 0 .95-.01 1.72-.03.77-.01 1.61-.07 2.53-.16.92-.1 1.87-.23 2.85-.4.97-.17 1.86-.42 2.67-.76.81-.34 1.47-.74 2-1.21.52-.47.79-1.06.79-1.77 0-.42-.1-.76-.28-1.04-.19-.29-.44-.49-.74-.62s-.62-.22-.95-.26c-.34-.03-.68-.05-1.02-.05-.86 0-1.68.07-2.45.22-.76.15-1.52.32-2.28.51-.75.19-1.5.36-2.25.51-.75.15-1.56.22-2.42.22-.82 0-1.76-.05-2.81-.14-1.05-.09-2.07-.31-3.04-.65-.98-.34-1.81-.83-2.51-1.49-.69-.66-1.06-1.53-1.1-2.62 1.99.38 3.94.22 5.86-.48 1.91-.69 3.61-1.72 5.09-3.09 1.49-1.37 2.67-2.96 3.55-4.76.88-1.8 1.32-3.66 1.32-5.57 0-1.2-.17-2.36-.53-3.47-.36-1.1-.89-2.07-1.61-2.89-.71-.83-1.59-1.5-2.64-2-1.05-.51-2.27-.76-3.66-.76-2.44 0-4.51.5-6.22 1.52-1.71 1.01-3.1 2.32-4.17 3.94-1.07 1.61-1.85 3.43-2.34 5.46-.48 2.03-.73 4.05-.73 6.08Zm5.97-3.66c0-1.01.17-2.02.51-3.01.34-1 .82-1.9 1.46-2.7.64-.81 1.42-1.47 2.34-1.98.92-.5 1.94-.76 3.07-.76.75 0 1.36.16 1.83.48.46.32.85.74 1.15 1.24.3.51.5 1.06.59 1.66.09.6.14 1.18.14 1.75 0 1.01-.22 1.95-.67 2.81a7.09 7.09 0 0 1-1.83 2.25c-.77.64-1.63 1.14-2.57 1.5-.93.35-1.89.53-2.87.53-1.39 0-2.26-.3-2.61-.9-.36-.6-.54-1.56-.54-2.87ZM96.5-7.26c1.01 2.4 1.86 4.26 2.56 5.57.69 1.31 1.3 2.14 1.83 2.48.52.34 1 .25 1.43-.26.43-.5.89-1.37 1.38-2.61-.82-1.84-1.37-3.85-1.63-6.03-.26-2.17-.48-4.35-.65-6.53-.17-2.17-.4-4.29-.7-6.33-.3-2.05-.85-3.9-1.63-5.57a10.22 10.22 0 0 0-3.49-4.11c-1.54-1.07-3.66-1.74-6.37-2-1.61 0-3.14.31-4.58.93-1.45.61-2.81 1.45-4.09 2.5a20.415 20.415 0 0 0-3.43 3.63 27.064 27.064 0 0 0-2.62 4.34c-.73 1.52-1.28 3.05-1.66 4.59-.37 1.53-.56 3.02-.56 4.44 0 3.68.84 6.45 2.53 8.31 1.69 1.86 4.28 2.78 7.77 2.78 1.61 0 2.98-.13 4.08-.39 1.11-.26 2.15-.66 3.13-1.18.97-.53 1.98-1.18 3.01-1.94a99.14 99.14 0 0 1 3.69-2.62ZM77.07-12.1c0-1.73.34-3.52 1.02-5.38.67-1.86 1.61-3.56 2.81-5.1 1.2-1.53 2.63-2.8 4.28-3.8 1.65-.99 3.45-1.49 5.41-1.49 1.05 0 1.83.44 2.36 1.33.53.88.88 1.92 1.07 3.12.19 1.2.26 2.41.22 3.63-.03 1.22-.05 2.17-.05 2.84 0 1.66-.32 3.16-.96 4.51-.64 1.35-1.48 2.5-2.53 3.46-1.05.96-2.28 1.71-3.69 2.25-1.41.55-2.88.82-4.42.82-2.06 0-3.5-.5-4.31-1.49-.8-1-1.21-2.56-1.21-4.7Zm29.05-4.85c0 1.51.27 3.23.79 5.18.53 1.96 1.29 3.8 2.28 5.55 1 1.74 2.2 3.22 3.6 4.42 1.41 1.2 3 1.8 4.76 1.8 1.88 0 3.61-.27 5.21-.82 1.6-.54 2.98-1.32 4.17-2.33 1.18-1.02 2.1-2.24 2.75-3.66.66-1.43.99-3.06.99-4.9-.94 0-1.77.14-2.51.42-.73.28-1.4.64-2.02 1.07-.62.43-1.21.9-1.78 1.41-.56.51-1.16.97-1.8 1.38-.64.41-1.32.77-2.05 1.07-.73.3-1.59.45-2.56.45-.72 0-1.34-.03-1.86-.09a3.76 3.76 0 0 1-1.47-.45c-.45-.24-.87-.61-1.26-1.09-.4-.49-.8-1.19-1.21-2.09-.04-.18-.07-.54-.09-1.07-.02-.52-.03-1.08-.05-1.66l-.06-1.66c-.02-.52-.03-.88-.03-1.07 0-1.16.11-2.41.31-3.74.21-1.33.59-2.58 1.16-3.75.56-1.16 1.32-2.13 2.28-2.9.95-.76 2.2-1.15 3.74-1.15.6 0 1.15.08 1.66.23.51.15 1.02.32 1.55.53.52.21 1.06.39 1.6.54.55.15 1.16.22 1.83.22 0-.98-.21-1.86-.64-2.65-.44-.78-1-1.46-1.69-2.02-.7-.57-1.48-1-2.34-1.3-.86-.3-1.73-.45-2.59-.45-1.69 0-3.29.47-4.81 1.41-1.52.94-2.86 2.11-4.03 3.52a17.622 17.622 0 0 0-2.78 4.7c-.7 1.73-1.05 3.38-1.05 4.95Zm26.46-11.42c0 .15.02.26.06.33 0 .12.02.21.06.28.07.15.26.39.56.71.3.32.53.48.68.48l10.86 2.47c1.16.27 2.01.99 2.53 2.17.53 1.18.91 2.61 1.16 4.28.24 1.67.42 3.46.53 5.38.12 1.91.34 3.72.68 5.43.34 1.71.85 3.18 1.55 4.42.69 1.24 1.75 2.04 3.18 2.42.56.19 1 .22 1.32.08.32-.13.56-.31.73-.56.17-.24.28-.52.34-.84.06-.32.09-.63.09-.93 0-1.65-.27-3.25-.79-4.79-.53-1.54-1.1-3.08-1.72-4.61-.62-1.54-1.19-3.09-1.72-4.65-.52-1.56-.79-3.16-.79-4.81 0-.15.02-.45.06-.9.04-.45.06-.77.06-.96.34 0 .86-.01 1.57-.03.72-.02 1.5-.06 2.37-.14.86-.07 1.78-.16 2.76-.25.97-.1 1.89-.18 2.76-.26.86-.07 1.64-.16 2.33-.25.7-.09 1.19-.16 1.49-.2 1.02-.18 1.7-.45 2.06-.78.36-.34.53-.9.53-1.69 0-1.05-.26-1.72-.78-2-.53-.28-1.23-.37-2.12-.26-.88.12-1.88.32-3.01.62-1.12.3-2.28.48-3.46.54-1.18.06-2.34-.1-3.46-.48-1.13-.37-2.13-1.18-3.01-2.42-.89-1.24-1.59-3-2.12-5.29-.52-2.29-.78-5.33-.78-9.12-1.13 0-2 .31-2.62.93-.62.62-1.07 1.4-1.35 2.36s-.44 2.03-.48 3.21c-.04 1.18-.01 2.32.08 3.41.1 1.08.2 2.08.31 2.98.12.9.17 1.56.17 1.97h-11.31c-.08 0-.27.15-.57.45-.3.3-.52.54-.67.73-.04.11-.06.21-.06.28-.04.08-.06.17-.06.29Zm71.9 25.95c-.19.52-.22.96-.09 1.29.13.34.32.6.57.76.24.17.53.29.87.37.34.08.66.11.96.11.93 0 2-.21 3.21-.64 1.2-.44 2.43-1 3.68-1.69 1.26-.7 2.49-1.51 3.69-2.45 1.2-.94 2.28-1.93 3.24-2.96.95-1.03 1.72-2.08 2.31-3.15.58-1.07.87-2.09.87-3.07 0-1.8-.56-3.24-1.69-4.31-1.13-1.07-2.53-1.93-4.22-2.59-1.69-.65-3.54-1.22-5.55-1.69-2.01-.46-3.85-1-5.54-1.6-1.69-.6-3.1-1.36-4.23-2.28-1.12-.92-1.69-2.19-1.69-3.8 0-1.13.32-2.13.96-3.01.64-.88 1.47-1.66 2.48-2.34 1.01-.67 2.16-1.27 3.43-1.77 1.28-.51 2.54-.93 3.78-1.27 1.23-.34 2.42-.61 3.54-.81 1.13-.21 2.05-.35 2.76-.43v-1.29c0-.04-.19-.16-.56-.37-.38-.2-.83-.43-1.35-.67-.53-.25-1.07-.5-1.64-.76-.56-.27-1.01-.45-1.35-.57h-.62c-1.05 0-2.19.16-3.43.48-1.24.32-2.47.76-3.69 1.33-1.22.56-2.38 1.25-3.49 2.08a17.36 17.36 0 0 0-2.93 2.73c-.84.99-1.52 2.04-2.02 3.15a8.317 8.317 0 0 0-.76 3.52c0 1.5.31 2.76.93 3.77.61 1.02 1.44 1.88 2.47 2.59 1.03.71 2.21 1.31 3.52 1.78 1.32.46 2.66.9 4.03 1.29s2.71.78 4.02 1.15c1.32.38 2.49.85 3.52 1.41 1.03.56 1.86 1.24 2.48 2.03.62.79.93 1.78.93 2.98 0 .94-.3 1.74-.9 2.4-.6.65-1.36 1.22-2.28 1.71-.92.49-1.93.95-3.02 1.38-1.08.43-2.13.89-3.12 1.38-1 .49-1.88 1.02-2.65 1.61-.77.58-1.24 1.32-1.43 2.22Zm21.62-16.55c.3 1.31.64 2.74 1.04 4.28.39 1.53.83 3.06 1.32 4.58.49 1.52 1.02 2.96 1.61 4.31.58 1.35 1.23 2.48 1.97 3.38.73.9 1.51 1.49 2.33 1.77.83.28 1.71.09 2.65-.59.04-.22.11-.87.22-1.94.12-1.07.3-2.33.57-3.77.26-1.45.59-2.96.98-4.53.4-1.58.91-2.99 1.55-4.23.64-1.24 1.37-2.22 2.2-2.95.82-.73 1.8-.95 2.92-.65.04 0 .17.09.4.28.22.19.47.41.73.68.26.26.52.52.76.78.24.27.44.47.59.62.34.49.64 1.08.9 1.78.26.69.51 1.44.73 2.25.23.81.43 1.67.62 2.59.19.92.34 1.79.45 2.62.34 2.06.62 4.22.85 6.47h4.11c0-1.12-.03-2.49-.09-4.08-.05-1.6-.2-3.25-.45-4.95-.24-1.71-.59-3.39-1.04-5.04-.45-1.65-1.1-3.13-1.94-4.42-.85-1.3-1.91-2.35-3.18-3.16-1.28-.8-2.82-1.21-4.62-1.21h-1.24c-1.09.23-2.18.67-3.29 1.33-1.11.65-2.12 1.46-3.04 2.42-.92.96-1.69 2.04-2.31 3.26-.62 1.22-.95 2.49-.98 3.8-.61-.41-1.11-.96-1.52-1.66-.42-.69-.77-1.45-1.07-2.28-.3-.82-.53-1.63-.68-2.42-.15-.79-.28-1.48-.39-2.08h-.57c-1.09 0-1.87.21-2.36.65-.49.43-.73 1.13-.73 2.11Zm32.59 3.32c0 2.36.35 4.51 1.05 6.45.69 1.93 1.69 3.58 3.01 4.95 1.31 1.37 2.92 2.44 4.84 3.21 1.91.77 4.07 1.15 6.47 1.15.38 0 .95-.01 1.72-.03.77-.01 1.61-.07 2.53-.16.92-.1 1.87-.23 2.85-.4.97-.17 1.86-.42 2.67-.76.81-.34 1.47-.74 2-1.21s.79-1.06.79-1.77c0-.42-.1-.76-.28-1.04-.19-.29-.43-.49-.74-.62-.3-.13-.61-.22-.95-.26a12.654 12.654 0 0 0-3.46.17c-.77.15-1.53.32-2.28.51-.76.19-1.51.36-2.26.51-.75.15-1.55.22-2.42.22-.82 0-1.76-.05-2.81-.14-1.05-.09-2.07-.31-3.04-.65-.98-.34-1.81-.83-2.51-1.49-.69-.66-1.06-1.53-1.1-2.62 1.99.38 3.94.22 5.86-.48 1.91-.69 3.61-1.72 5.09-3.09 1.49-1.37 2.67-2.96 3.55-4.76.88-1.8 1.32-3.66 1.32-5.57 0-1.2-.17-2.36-.53-3.47-.36-1.1-.89-2.07-1.61-2.89-.71-.83-1.59-1.5-2.64-2-1.05-.51-2.27-.76-3.66-.76-2.44 0-4.51.5-6.22 1.52-1.71 1.01-3.1 2.32-4.17 3.94-1.07 1.61-1.85 3.43-2.33 5.46-.49 2.03-.74 4.05-.74 6.08Zm5.97-3.66c0-1.01.17-2.02.51-3.01.34-1 .82-1.9 1.46-2.7.64-.81 1.42-1.47 2.34-1.98.92-.5 1.94-.76 3.07-.76.75 0 1.36.16 1.83.48.47.32.85.74 1.15 1.24.3.51.5 1.06.59 1.66.1.6.14 1.18.14 1.75 0 1.01-.22 1.95-.67 2.81a7.09 7.09 0 0 1-1.83 2.25 9.16 9.16 0 0 1-2.56 1.5c-.94.35-1.9.53-2.88.53-1.38 0-2.26-.3-2.61-.9-.36-.6-.54-1.56-.54-2.87Zm49.66 12.05c1.01 2.4 1.86 4.26 2.56 5.57.69 1.31 1.3 2.14 1.83 2.48.52.34 1 .25 1.43-.26.44-.5.9-1.37 1.38-2.61-.82-1.84-1.37-3.85-1.63-6.03-.26-2.17-.48-4.35-.65-6.53-.17-2.17-.4-4.29-.7-6.33-.3-2.05-.84-3.9-1.63-5.57-.79-1.68-1.95-3.05-3.49-4.11-1.54-1.07-3.66-1.74-6.37-2-1.61 0-3.14.31-4.58.93-1.45.61-2.81 1.45-4.09 2.5a20.415 20.415 0 0 0-3.43 3.63 27.064 27.064 0 0 0-2.62 4.34c-.73 1.52-1.28 3.05-1.66 4.59-.37 1.53-.56 3.02-.56 4.44 0 3.68.84 6.45 2.53 8.31 1.69 1.86 4.28 2.78 7.77 2.78 1.62 0 2.98-.13 4.08-.39 1.11-.26 2.15-.66 3.13-1.18.97-.53 1.98-1.18 3.01-1.94a99.14 99.14 0 0 1 3.69-2.62Zm-19.43-4.84c0-1.73.34-3.52 1.02-5.38.67-1.86 1.61-3.56 2.81-5.1 1.2-1.53 2.63-2.8 4.28-3.8 1.65-.99 3.45-1.49 5.41-1.49 1.05 0 1.83.44 2.36 1.33.53.88.88 1.92 1.07 3.12.19 1.2.26 2.41.23 3.63-.04 1.22-.06 2.17-.06 2.84 0 1.66-.32 3.16-.96 4.51-.64 1.35-1.48 2.5-2.53 3.46-1.05.96-2.28 1.71-3.69 2.25-1.41.55-2.88.82-4.42.82-2.06 0-3.5-.5-4.31-1.49-.8-1-1.21-2.56-1.21-4.7Zm41.1 10.97c.79 0 1.3-.2 1.52-.62.23-.41.31-.97.26-1.68-.06-.72-.23-1.52-.51-2.43-.28-.9-.57-1.82-.87-2.75-.3-.94-.56-1.88-.76-2.82-.21-.94-.26-1.76-.14-2.48 2.85 1.47 5.66 2.72 8.44 3.75 2.78 1.03 5.61 1.64 8.5 1.83.98 0 1.73-.17 2.25-.51.53-.34.79-1.05.79-2.14 0-.45-.04-.79-.11-1.01-.08-.23-.21-.41-.4-.54-.18-.13-.45-.23-.78-.31-.34-.07-.77-.22-1.3-.45-.45-.15-1.11-.38-2-.7-.88-.32-1.86-.69-2.95-1.1-1.09-.41-2.25-.83-3.49-1.26-1.24-.44-2.41-.85-3.49-1.24-1.09-.4-2.09-.74-2.99-1.04-.9-.31-1.55-.53-1.97-.68-.04-.23-.07-.42-.11-.59-.04-.17 0-.37.11-.59.64-1.32 1.58-2.71 2.82-4.17 1.24-1.46 2.53-2.87 3.88-4.22 1.35-1.35 2.64-2.57 3.86-3.66 1.22-1.09 2.13-1.9 2.73-2.42 0-.08.02-.18.06-.31.03-.13.05-.23.05-.31 0-.75-.27-1.26-.81-1.52-.55-.26-1.1-.4-1.67-.4-.97 0-1.98.3-3.04.88-1.05.58-2.1 1.3-3.15 2.17-1.05.86-2.05 1.8-3.01 2.81s-1.81 1.96-2.56 2.84c-.75.89-1.37 1.65-1.86 2.31-.49.66-.79 1.04-.9 1.16-2.1-6.65-2.91-13.48-2.42-20.5-.08-.11-.22-.24-.42-.39a5.32 5.32 0 0 0-.71-.42c-.26-.14-.51-.25-.76-.34-.24-.1-.4-.12-.48-.09-.75.19-1.3.47-1.66.85-.35.37-.6.8-.73 1.27-.13.46-.19.97-.17 1.52.02.54.03 1.07.03 1.6.41 2.89.89 5.98 1.44 9.26.54 3.29 1.11 6.52 1.71 9.71.6 3.19 1.23 6.21 1.89 9.07.66 2.85 1.32 5.3 2 7.34.67 2.05 1.34 3.58 2 4.59.65 1.02 1.28 1.26 1.88.73Zm21.68-14.52c0 2.36.34 4.51 1.04 6.45.69 1.93 1.7 3.58 3.01 4.95 1.31 1.37 2.93 2.44 4.84 3.21 1.92.77 4.07 1.15 6.48 1.15.37 0 .94-.01 1.71-.03.77-.01 1.62-.07 2.54-.16.92-.1 1.86-.23 2.84-.4.98-.17 1.87-.42 2.67-.76.81-.34 1.48-.74 2-1.21.53-.47.79-1.06.79-1.77 0-.42-.09-.76-.28-1.04-.19-.29-.43-.49-.73-.62s-.62-.22-.96-.26c-.34-.03-.67-.05-1.01-.05-.87 0-1.68.07-2.45.22-.77.15-1.53.32-2.28.51-.75.19-1.5.36-2.25.51-.75.15-1.56.22-2.42.22-.83 0-1.77-.05-2.82-.14a12.48 12.48 0 0 1-3.04-.65c-.98-.34-1.81-.83-2.5-1.49-.7-.66-1.06-1.53-1.1-2.62 1.99.38 3.94.22 5.85-.48 1.92-.69 3.62-1.72 5.1-3.09 1.48-1.37 2.66-2.96 3.54-4.76.89-1.8 1.33-3.66 1.33-5.57 0-1.2-.18-2.36-.54-3.47-.35-1.1-.89-2.07-1.6-2.89-.71-.83-1.6-1.5-2.65-2-1.05-.51-2.27-.76-3.66-.76-2.44 0-4.51.5-6.22 1.52a12.558 12.558 0 0 0-4.16 3.94c-1.07 1.61-1.85 3.43-2.34 5.46-.49 2.03-.73 4.05-.73 6.08Zm5.97-3.66c0-1.01.16-2.02.5-3.01.34-1 .83-1.9 1.47-2.7.63-.81 1.41-1.47 2.33-1.98.92-.5 1.94-.76 3.07-.76.75 0 1.36.16 1.83.48.47.32.85.74 1.15 1.24.3.51.5 1.06.6 1.66.09.6.14 1.18.14 1.75 0 1.01-.23 1.95-.68 2.81a7.09 7.09 0 0 1-1.83 2.25c-.77.64-1.62 1.14-2.56 1.5-.94.35-1.9.53-2.87.53-1.39 0-2.26-.3-2.62-.9-.36-.6-.53-1.56-.53-2.87Zm25.44-4.34c0 .68.2 1.73.59 3.16.4 1.42.93 3.02 1.61 4.78.67 1.77 1.46 3.58 2.36 5.44.9 1.85 1.85 3.55 2.85 5.09.99 1.54 1.99 2.81 3.01 3.8 1.01 1 1.99 1.49 2.93 1.49 1.68 0 2.53-.79 2.53-2.36 0-.83-.08-1.63-.23-2.39-.15-.77-.32-1.52-.5-2.26-.19-.73-.36-1.48-.51-2.25-.15-.77-.23-1.53-.23-2.28 0-.97.05-2.05.15-3.24.09-1.18.32-2.3.7-3.37a7.11 7.11 0 0 1 1.66-2.71c.73-.73 1.75-1.09 3.07-1.09.07 0 .14.01.2.02.05.02.12.03.19.03.04.04.1.06.17.06l2.42 2.42h.57c.82 0 1.56-.17 2.22-.51.66-.34.98-.92.98-1.74 0-.98-.18-1.84-.56-2.59-.37-.75-.87-1.4-1.49-1.94-.62-.55-1.33-.96-2.14-1.24s-1.66-.43-2.56-.43c-1.77 0-3.26.46-4.48 1.36-1.22.9-2.27 2.01-3.15 3.35a22.68 22.68 0 0 0-2.22 4.3c-.6 1.54-1.15 2.97-1.64 4.28-.03-.04-.17-.37-.39-1.01-.23-.64-.52-1.4-.87-2.28-.36-.88-.77-1.85-1.24-2.9-.47-1.05-.95-2.02-1.44-2.9-.49-.88-.96-1.62-1.43-2.2-.47-.58-.89-.87-1.27-.87-.45 0-.8.09-1.04.28-.25.19-.42.42-.54.71-.11.28-.18.6-.22.95-.04.36-.06.71-.06 1.04Zm39.58 21.12c0 .56.12 1.12.37 1.69.24.56.76.84 1.54.84.83 0 1.72-.27 2.68-.82.96-.54 1.91-1.23 2.87-2.08.96-.84 1.88-1.79 2.76-2.84.88-1.05 1.65-2.11 2.31-3.18.65-1.07 1.18-2.08 1.57-3.02.4-.93.59-1.7.59-2.3 0-1.39-.29-2.44-.87-3.16-.58-.71-1.36-1.23-2.33-1.54-.98-.32-2.09-.47-3.33-.45-1.23.01-2.5.08-3.8.19-1.29.11-2.56.2-3.8.26-1.24.05-2.34-.02-3.32-.23-.97-.21-1.76-.59-2.36-1.15-.6-.57-.9-1.45-.9-2.65 0-1.61.3-2.92.9-3.91.6-1 1.34-1.8 2.22-2.42.88-.62 1.87-1.12 2.96-1.5 1.09-.37 2.13-.73 3.12-1.07 1-.33 1.88-.73 2.65-1.18.77-.45 1.28-1.09 1.55-1.91-.61-.83-1.32-1.58-2.14-2.25a7.122 7.122 0 0 0-2.71-1.41c-1.61.67-3.21 1.49-4.81 2.45-1.59.95-3.03 2.06-4.31 3.32-1.27 1.26-2.3 2.7-3.06 4.33-.77 1.64-1.16 3.47-1.16 5.49 0 1.73.31 3.15.93 4.25.62 1.11 1.45 1.97 2.51 2.57 1.05.6 2.24 1.01 3.57 1.23 1.33.23 2.71.35 4.14.37 1.42.02 2.85-.02 4.28-.11 1.42-.1 2.74-.14 3.94-.14.67.45 1.01 1.01 1.01 1.69 0 .67-.21 1.39-.65 2.16-.43.77-1.02 1.57-1.77 2.4-.75.82-1.56 1.61-2.42 2.36-.86.75-1.72 1.46-2.56 2.11-.85.66-1.57 1.19-2.17 1.61Z" />
    </g>
</svg>